<?xml version="1.0" encoding="UTF-8"?>
<!DOCTYPE svg PUBLIC "-//W3C//DTD SVG 1.1//EN" "http://www.w3.org/Graphics/SVG/1.1/DTD/svg11.dtd">
<!-- Creator: CorelDRAW X7 -->
<svg xmlns="http://www.w3.org/2000/svg" xml:space="preserve" width="100%" height="100%" version="1.1" style="shape-rendering:geometricPrecision; text-rendering:geometricPrecision; image-rendering:optimizeQuality; fill-rule:evenodd; clip-rule:evenodd"
viewBox="0 0 4417 1053"
 xmlns:xlink="http://www.w3.org/1999/xlink">
 <defs>
  <style type="text/css">
   <![CDATA[
    .fil0 {fill:#FEFEFE;fill-rule:nonzero}
   ]]>
  </style>
 </defs>
 <g id="Layer_x0020_1">
  <metadata id="CorelCorpID_0Corel-Layer"/>
  <polygon class="fil0" points="735,691 0,691 0,607 735,607 "/>
  <polygon id="1" class="fil0" points="967,1048 879,1048 879,1 967,1 "/>
  <path id="2" class="fil0" d="M1487 1048l-88 0 0 -17c-35,4 -70,9 -106,14 -43,5 -79,8 -105,8 -49,0 -73,-26 -73,-78l0 -230c1,-51 24,-77 71,-78l215 0 0 -196 -192 0 0 110 -87 0 0 -109c1,-50 24,-75 71,-75l216 0c52,0 78,26 78,76l0 575zm-86 -80l0 -231 -199 0 0 235 199 -4z"/>
  <path id="3" class="fil0" d="M1994 971c0,51 -26,77 -77,77l-207 0c-52,0 -78,-26 -78,-77l0 -496c0,-52 26,-78 78,-78l207 0c51,0 77,26 77,78l0 128 -87 0 0 -128 -186 0 0 495 186 0 0 -144 87 0 0 145z"/>
  <path id="4" class="fil0" d="M2512 1048l-88 0 0 -18c-35,5 -70,10 -104,14 -42,6 -76,9 -104,9 -51,-1 -77,-27 -77,-78l0 -578 87 0 0 572 198 -6 0 -566 88 0 0 651z"/>
  <path id="5" class="fil0" d="M3031 1048l-89 0 0 -571 -196 6 0 565 -89 0 0 -651 89 0 0 18c35,-4 70,-9 106,-14 42,-5 78,-8 105,-8 50,0 74,26 74,78l0 577z"/>
  <path id="6" class="fil0" d="M3544 1048l-88 0 0 -17c-35,4 -70,9 -105,14 -44,5 -79,8 -106,8 -48,0 -73,-26 -73,-78l0 -230c1,-51 25,-77 72,-78l214 0 0 -196 -192 0 0 110 -87 0 0 -109c1,-50 24,-75 71,-75l216 0c52,0 78,26 78,76l0 575zm-86 -80l0 -231 -199 0 0 235 199 -4z"/>
  <polygon id="7" class="fil0" points="4416,691 3681,691 3681,607 4416,607 "/>
 </g>
</svg>
